PathFileType	4	(X/Y/Z)	C:\Users\WrightLab\Desktop\Jo\P1.2Trial14.trc
DataRate	CameraRate	NumFrames	NumMarkers	Units	OrigDataRate	OrigDataStartFrame	OrigNumFrames
100.00	100.00	       12	19	mm	100.00	704	       938
Frame#	Time	Headset_Front			Headset_Back			Headset_Left			Headset_Right			Left_Shoulder			Right_Shoulder			Sternum			C7			Left Elbow			Right Elbow			Left Wrist			Right Wrist			Left ASIS			Right ASIS			S2			Left Knee			Right Knee			Left Ankle			Right Ankle			
		X1	Y1	Z1	X2	Y2	Z2	X3	Y3	Z3	X4	Y4	Z4	X5	Y5	Z5	X6	Y6	Z6	X7	Y7	Z7	X8	Y8	Z8	X9	Y9	Z9	X10	Y10	Z10	X11	Y11	Z11	X12	Y12	Z12	X13	Y13	Z13	X14	Y14	Z14	X15	Y15	Z15	X16	Y16	Z16	X17	Y17	Z17	X18	Y18	Z18	X19	Y19	Z19	

704	7.030	-727.37146	1292.51904	-645.49194	-791.84851	1478.95471	-408.50098	-874.87299	1386.80029	-528.56006	-647.96210	1356.00903	-533.81250	-995.68103	1187.16772	-397.72470	-569.72430	1205.06348	-413.50977	-786.74994	1109.98267	-508.21964	-783.85431	1280.85474	-307.84390	-1039.26758	908.24927	-310.68607	-485.13736	982.10516	-298.60193	-1085.10046	690.66187	-391.04297	-384.54907	739.12103	-305.86905	-918.78558	804.79303	-434.00687	-656.34753	787.66547	-445.00034	-778.05115	892.50275	-182.38850	-915.49884	385.82455	-313.03940	-666.69720	433.31995	-519.90942	-890.60321	85.73802	-91.98499	-667.27710	130.27997	-623.44604	
705	7.040	-726.09833	1291.76697	-652.97784	-790.81458	1476.94104	-415.61111	-875.03888	1386.33118	-536.18805	-646.60168	1355.02014	-542.08508	-995.38965	1186.50269	-405.70285	-569.15875	1203.14111	-419.66177	-787.00403	1108.72461	-516.77765	-780.63141	1278.30078	-314.33884	-1042.68286	907.56244	-321.68753	-484.83517	980.01770	-306.53079	-1083.88892	690.00098	-407.44162	-384.30338	737.43811	-312.50281	-918.98639	804.05853	-440.87833	-656.51941	786.46417	-455.08881	-776.53998	890.03973	-192.77951	-917.14496	385.36606	-318.46906	-666.80347	430.87756	-529.03986	-890.54675	87.18570	-93.61633	-665.71405	133.81648	-636.39581	
706	7.050	-724.81384	1290.93262	-661.15082	-790.34637	1475.80530	-423.34442	-872.82489	1384.61975	-544.22461	-646.02838	1353.51929	-548.70862	-994.42175	1185.54211	-413.20212	-568.32794	1201.61938	-425.26981	-786.77661	1108.35864	-525.83673	-779.76001	1276.02893	-321.75235	-1043.72778	906.08978	-332.27484	-484.93011	977.93732	-314.03870	-1082.79065	689.92651	-424.36148	-384.01498	735.58423	-319.38791	-919.11987	803.24323	-449.25662	-656.38513	784.70685	-467.23779	-776.09814	888.34186	-201.14024	-919.15430	383.91571	-323.75110	-666.54260	428.91928	-538.20776	-890.60083	88.07884	-94.30531	-666.10480	134.94427	-649.16144	
707	7.060	-723.44263	1289.91833	-668.77924	-788.91772	1474.56140	-430.67383	-872.74908	1384.27722	-552.08582	-644.92511	1352.86890	-556.61340	-993.61102	1185.17688	-421.81552	-567.20129	1200.22314	-435.02985	-786.50800	1107.40613	-534.55475	-779.07043	1274.82764	-330.34790	-1045.46191	905.54077	-344.97491	-485.06430	976.45685	-322.92044	-1081.69922	690.21777	-441.10693	-383.52731	734.00525	-326.49069	-918.88501	802.72009	-457.75525	-657.56134	783.52240	-476.54623	-774.28430	886.66479	-208.67604	-920.90002	383.01733	-329.11249	-667.36957	426.77014	-546.80170	-891.20605	89.91714	-96.31075	-666.48065	135.28972	-660.70026	
708	7.070	-721.89905	1289.65808	-676.99139	-788.16022	1473.48779	-438.79068	-870.94727	1383.41321	-560.01855	-643.08606	1351.90857	-564.06378	-992.54828	1184.83508	-430.20621	-566.17017	1197.89771	-442.12555	-785.74622	1106.52454	-543.28949	-776.64496	1273.09949	-338.53577	-1045.45117	903.82483	-355.33966	-484.44525	974.30408	-330.72113	-1080.82434	691.04102	-458.39447	-384.09491	731.92242	-335.43604	-918.62201	802.04315	-466.21771	-658.28094	781.29639	-486.09262	-771.66016	883.82941	-220.15855	-922.59766	382.22919	-334.97351	-667.39819	425.35040	-557.73578	-891.34790	91.52396	-98.49449	-667.33344	135.02985	-671.53198	
709	7.080	-720.29449	1289.55579	-685.02563	-786.43060	1473.16028	-446.34131	-868.39996	1382.65723	-568.24127	-641.96069	1352.00793	-574.13525	-991.20026	1184.87183	-438.40594	-564.66956	1195.97900	-453.61215	-785.25549	1106.18225	-553.34772	-775.26031	1271.66089	-346.81177	-1046.99719	903.78735	-367.88159	-486.07150	970.99597	-339.94684	-1078.42761	690.66205	-474.41037	-383.79282	729.68103	-343.64474	-918.28113	801.77557	-475.59079	-658.16687	780.70959	-498.53479	-770.82623	882.49072	-230.49184	-924.30371	381.46378	-341.54861	-668.46008	423.87933	-567.95081	-891.99402	93.78719	-101.00119	-668.51648	134.06735	-681.37128	
710	7.090	-718.70099	1289.49036	-693.94305	-784.44263	1471.24670	-453.66193	-867.99866	1382.15027	-575.69257	-640.42126	1351.82336	-581.88391	-989.60974	1184.32593	-447.00330	-563.21649	1195.27820	-463.97388	-783.83337	1105.77759	-561.96844	-773.06366	1269.90259	-355.85712	-1048.31885	904.12238	-379.61191	-485.52402	968.82751	-350.17184	-1077.43298	691.76898	-490.55008	-384.59732	727.65704	-351.93985	-917.93097	801.43994	-484.66565				-768.60718	879.70062	-240.96539	-925.83905	380.96933	-348.63324	-668.38312	422.69397	-579.83020	-892.63672	95.63097	-103.03127	-670.33002	131.95761	-690.29871	
711	7.100	-716.93073	1289.92358	-702.19165	-783.50702	1471.50317	-461.94931	-865.95447	1381.38611	-583.17651	-638.75073	1352.06274	-591.06421	-988.16205	1184.21484	-455.63553	-561.05243	1192.98694	-469.57080	-783.02155	1106.25989	-572.32947	-770.73523	1267.98633	-364.20499	-1048.49963	902.62897	-390.31155	-484.62991	966.89191	-358.93283	-1076.31152	693.51190	-508.15836	-384.25119	724.67651	-360.78033	-917.48383	801.34631	-493.88477	-658.63550	778.67151	-520.06104	-767.80658	877.51080	-251.28493	-927.31641	380.34845	-355.96902	-669.67804	421.17868	-591.04352	-893.04492	98.03603	-106.24240	-672.31677	128.92928	-696.54095	
712	7.110	-715.01373	1290.88721	-710.68060	-781.43713	1471.10925	-469.78436	-864.55902	1381.29565	-591.29852	-636.66705	1351.68054	-598.13635	-985.83051	1184.79395	-465.07697	-559.06195	1191.71753	-484.63440	-781.54138	1106.02295	-581.89606	-769.19336	1267.13000	-373.56760	-1048.93958	902.74426	-402.32751	-484.32639	964.54218	-368.39688	-1075.25159	695.29352	-524.71075	-384.76822	722.46930	-370.43326	-916.77332	802.30676	-505.58371	-657.91821	777.18170	-533.04572	-765.34613	875.91760	-261.50314	-928.64844	380.01108	-363.94226	-670.40509	418.75610	-601.59723	-894.07996	100.83538	-110.12575	-675.35669	125.08959	-703.86017	
713	7.120	-713.25586	1291.78235	-719.24249	-779.40350	1470.79578	-477.25787	-862.46893	1381.79053	-599.64020	-634.46320	1352.62915	-607.97095	-983.75934	1184.66284	-473.85959	-556.69525	1190.18152	-490.37466	-779.62708	1106.67017	-592.61652	-765.74951	1265.70105	-382.64655	-1049.79919	903.38519	-414.29123	-483.33762	962.80792	-378.28296	-1074.28601	697.38318	-541.10675	-385.71942	718.86420	-381.70361	-916.35132	802.46600	-516.73364	-658.42059	777.16003	-544.68726	-763.40540	874.28882	-273.74194	-929.81348	380.21060	-373.35336	-671.42395	416.86099	-613.52094	-895.07129	101.02264	-118.66956	-678.50854	122.04509	-710.42371	
714	7.130	-711.37708	1293.26685	-728.37891	-776.96545	1467.74365	-486.19165	-860.02130	1382.63684	-607.76514	-632.29614	1353.75452	-617.56152	-981.46954	1184.52795	-482.82901	-554.10394	1188.63342	-500.75574	-777.68488	1106.98047	-602.46143	-762.69281	1265.09314	-390.98578	-1048.59802	902.85840	-425.40338	-481.76733	960.48236	-388.20917	-1072.98193	699.87964	-557.11328	-386.20233	715.92749	-392.14322	-915.53656	802.96899	-528.01666	-657.00781	777.32776	-556.92120	-762.92865	872.30408	-285.68542	-930.73352	380.60425	-383.03885	-671.99316	413.95013	-624.55670	-897.52325	107.52302	-118.49633	-680.71722	116.61983	-715.95105	
715	7.140	-709.41943	1295.25513	-737.40222	-774.49036	1467.95166	-493.46146	-857.71899	1383.54932	-616.22607	-629.49091	1353.99011	-622.45062	-979.12158	1185.68774	-492.41101	-552.24469	1188.54749	-511.21649	-775.43280	1108.25598	-613.34442	-760.53748	1264.43933	-400.35785	-1047.59045	903.69012	-437.43088	-480.37866	959.00653	-399.46185	-1071.75110	702.74634	-573.05591	-385.67996	714.56970	-402.83679	-914.43384	803.84436	-540.65137	-655.95184	776.78217	-569.31555	-762.28467	871.62909	-295.45901	-931.56415	381.38626	-393.39807	-672.88696	412.77362	-635.82959	-899.44611	111.23938	-124.28892	-679.55347	109.80225	-720.98865	
